<?xml version="1.0" encoding="UTF-8"?>
<svg width="180" height="180" version="1.1" viewBox="0 0 180 180" xmlns="http://www.w3.org/2000/svg" xmlns:cc="http://creativecommons.org/ns#" xmlns:dc="http://purl.org/dc/elements/1.1/" xmlns:rdf="http://www.w3.org/1999/02/22-rdf-syntax-ns#" xmlns:xlink="http://www.w3.org/1999/xlink">
 <metadata>
  <rdf:RDF>
   <cc:Work rdf:about="">
    <dc:format>image/svg+xml</dc:format>
    <dc:type rdf:resource="http://purl.org/dc/dcmitype/StillImage"/>
    <dc:title>jobs-telephone</dc:title>
   </cc:Work>
  </rdf:RDF>
 </metadata>
 <defs>
  <style>.cls-1{fill:url(#New_Gradient_Swatch_21);}.cls-2{fill:url(#linear-gradient);}.cls-3{fill:url(#linear-gradient-2);}.cls-4{opacity:0.15;}.cls-5{fill:url(#New_Gradient_Swatch_10);}.cls-6{fill:#0fa9d8;}.cls-7{fill:#bad0e2;}.cls-8{fill:#281805;}.cls-9{fill:#04447d;}.cls-10{fill:url(#linear-gradient-3);}.cls-11{fill:url(#New_Gradient_Swatch_10-2);}.cls-12{fill:url(#linear-gradient-4);}.cls-13{fill:#8c6c13;}.cls-14{fill:url(#New_Gradient_Swatch_10-3);}.cls-15{fill:url(#linear-gradient-5);}.cls-16{fill:url(#New_Gradient_Swatch_10-4);}.cls-17{fill:url(#linear-gradient-6);}.cls-18{opacity:0.35;}</style>
  <linearGradient id="New_Gradient_Swatch_21" x1="68.857" x2="248.2" y1="89.673" y2="89.673" gradientTransform="matrix(1.0904 0 0 1.0904 -14.335 -2.0792)" gradientUnits="userSpaceOnUse">
   <stop stop-color="#4db1ff" offset="0"/>
   <stop stop-color="#1f8fe6" offset="1"/>
  </linearGradient>
  <linearGradient id="linear-gradient" x1="84.464" x2="139.87" y1="27.701" y2="27.701" gradientUnits="userSpaceOnUse">
   <stop stop-color="#1171bb" offset="0"/>
   <stop stop-color="#4b80da" offset="1"/>
  </linearGradient>
  <linearGradient id="linear-gradient-2" x1="192.8" x2="248.2" y1="136.04" y2="136.04" gradientTransform="matrix(1.0904 0 0 1.0904 -14.335 -2.0792)" xlink:href="#linear-gradient"/>
  <linearGradient id="New_Gradient_Swatch_10" x1="66.271" x2="60.323" y1="143.58" y2="133.82" gradientUnits="userSpaceOnUse">
   <stop stop-color="#fdddc3" offset="0"/>
   <stop stop-color="#fdc89d" offset="1"/>
  </linearGradient>
  <linearGradient id="linear-gradient-3" x1="47.342" x2="68.412" y1="140.76" y2="140.76" gradientUnits="userSpaceOnUse">
   <stop stop-color="#4db1ff" offset="0"/>
   <stop stop-color="#1171bb" offset="1"/>
  </linearGradient>
  <linearGradient id="New_Gradient_Swatch_10-2" x1="2015.9" x2="2006.3" y1="-46.302" y2="-36.322" gradientTransform="matrix(.9986 .0522 -.0522 .9986 -1938.6 51.883)" xlink:href="#New_Gradient_Swatch_10"/>
  <linearGradient id="linear-gradient-4" x1="-3635.3" x2="-3631.1" y1="4.4215" y2="2.3238" gradientTransform="matrix(-.9981 -.061 -.061 .9981 -3567.3 -106.05)" gradientUnits="userSpaceOnUse">
   <stop stop-color="#f59d58" offset="0"/>
   <stop stop-color="#f5b17d" offset="1"/>
  </linearGradient>
  <linearGradient id="New_Gradient_Swatch_10-3" x1="1727.8" x2="1725.9" y1="362.3" y2="362.95" gradientTransform="matrix(.9969 -.0791 .0791 .9969 -1697.5 -111.77)" xlink:href="#New_Gradient_Swatch_10"/>
  <linearGradient id="linear-gradient-5" x1="1726.5" x2="1727.3" y1="362.61" y2="362.61" gradientTransform="matrix(.9969 -.0791 .0791 .9969 -1688.9 -111.96)" xlink:href="#linear-gradient-4"/>
  <linearGradient id="New_Gradient_Swatch_10-4" x1="-1932.8" x2="-1940.1" y1="-4995.9" y2="-5007.7" gradientTransform="rotate(70.275 -4615.6 -1045.4)" xlink:href="#New_Gradient_Swatch_10"/>
  <linearGradient id="linear-gradient-6" x1="41.883" x2="57.308" y1="129.62" y2="129.62" gradientTransform="translate(-31.625,3.375)" xlink:href="#linear-gradient-3"/>
  <linearGradient id="linearGradient1133" x1="84.464" x2="139.87" y1="27.701" y2="27.701" gradientTransform="matrix(1.0904 0 0 1.0904 -14.335 -2.0792)" gradientUnits="userSpaceOnUse" xlink:href="#linear-gradient"/>
 </defs>
 <title>jobs-telephone</title>
 <g transform="matrix(.91707 0 0 .91707 7.4635 -30.12)" stroke-width="1.0904" data-name="Layer 2">
  <g stroke-width="1.0904" data-name="Layer 1">
   <g id="Telephone" transform="translate(-68.53 35.279)" stroke-width="1.0904">
    <path class="cls-1" d="m114.22 69.749c7.3145 14.142 12.9 23.709 26.717 37.526s23.38 19.399 37.529 26.711l23.802-23.802a6.2983 6.2983 0 0 1 8.9062 0l35.19 35.188a6.3 6.3 0 0 1 0 8.908l-9.4606 9.4587c-27.511 27.512-81.021 18.612-126.03-26.398-45.015-45.016-53.914-98.524-26.402-126.04l9.4588-9.46a6.298 6.298 0 0 1 8.9061 0l35.194 35.194a6.2983 6.2983 0 0 1 0 8.9062z" fill="url(#New_Gradient_Swatch_21)"/>
    <path class="cls-2" d="m102.83 1.8443 35.194 35.194a6.2983 6.2983 0 0 1 0 8.9062l-9.4606 9.4587-44.098-44.098 9.4588-9.46a6.298 6.298 0 0 1 8.9061-5e-4z" fill="url(#linearGradient1133)"/>
    <path class="cls-3" d="m211.17 110.18 35.188 35.188a6.3 6.3 0 0 1 0 8.908l-9.4588 9.4587-44.096-44.096 9.46-9.4588a6.2983 6.2983 0 0 1 8.9067 0z" fill="url(#linear-gradient-2)"/>
   </g>
  </g>
 </g>
</svg>
