<?xml version="1.0" standalone="no"?>
<!DOCTYPE svg PUBLIC "-//W3C//DTD SVG 20010904//EN"
 "http://www.w3.org/TR/2001/REC-SVG-20010904/DTD/svg10.dtd">
<svg version="1.0" xmlns="http://www.w3.org/2000/svg"
 width="700.000000pt" height="700.000000pt" viewBox="0 0 700.000000 700.000000"
 preserveAspectRatio="xMidYMid meet">
<metadata>
Created by potrace 1.11, written by Peter Selinger 2001-2013
</metadata>
<g transform="translate(0.000000,700.000000) scale(0.100000,-0.100000)"
fill="#000000" stroke="none">
<path d="M5609 6346 c-2 -2 -31 -7 -64 -10 -33 -4 -71 -8 -85 -11 -14 -2 -43
-7 -65 -10 -193 -26 -531 -110 -771 -190 -484 -162 -955 -403 -1375 -703 -283
-203 -442 -337 -703 -597 -532 -529 -915 -1125 -1136 -1770 -21 -60 -41 -125
-45 -143 -7 -33 -7 -34 27 -28 151 23 411 24 568 1 214 -31 412 -84 619 -166
123 -49 349 -159 449 -218 29 -17 57 -31 62 -31 6 0 10 -3 10 -8 0 -4 9 -12
20 -17 89 -44 366 -234 559 -384 68 -53 147 -114 175 -136 88 -68 347 -287
344 -291 -2 -2 -42 8 -88 22 -75 22 -339 91 -380 99 -8 2 -60 13 -115 25 -103
21 -223 43 -308 55 -27 3 -58 8 -69 10 -11 2 -47 7 -81 10 -34 3 -73 8 -87 10
-166 25 -697 25 -870 0 -14 -2 -52 -6 -85 -10 -33 -3 -109 -15 -170 -25 -60
-10 -125 -22 -143 -25 -64 -11 -341 -84 -449 -118 -373 -119 -730 -283 -1113
-513 -204 -122 -223 -139 -70 -61 328 165 685 301 990 377 115 28 265 59 319
66 25 3 47 7 50 9 3 1 35 6 71 10 36 3 76 8 90 10 159 24 683 25 805 1 11 -2
49 -7 85 -11 36 -4 74 -9 85 -11 10 -2 35 -6 55 -9 20 -3 47 -8 60 -10 14 -3
41 -8 60 -11 19 -3 64 -13 100 -21 36 -8 76 -17 90 -20 97 -18 612 -173 705
-213 11 -4 45 -17 75 -28 30 -11 127 -48 215 -82 88 -34 273 -104 410 -156
138 -52 257 -98 265 -101 8 -3 20 -7 25 -9 6 -1 57 -19 114 -39 113 -40 319
-101 391 -117 25 -6 61 -14 80 -18 76 -17 147 -31 185 -36 22 -3 50 -7 63 -10
107 -22 575 -22 612 1 4 2 22 6 41 9 51 6 197 42 270 66 68 23 70 23 169 65
92 39 345 174 338 180 -2 2 -46 -3 -98 -9 -94 -13 -410 -13 -500 -1 -25 3 -58
7 -75 9 -138 17 -375 69 -635 140 -100 28 -406 128 -720 236 -162 56 -345 118
-407 138 l-112 36 -29 70 c-17 39 -46 120 -66 179 -51 155 -67 219 -111 457
-3 16 -14 95 -20 145 -10 81 -18 254 -18 380 0 136 10 365 18 395 2 8 6 40 10
70 3 30 7 66 9 80 3 14 7 48 11 75 8 69 61 329 91 450 96 380 235 758 422
1145 53 108 90 179 197 375 131 239 407 639 604 875 39 47 71 88 71 93 0 7
-14 10 -21 3z"/>
</g>
</svg>
