<?xml version="1.0" encoding="UTF-8"?>
<!-- Created with Inkscape (http://www.inkscape.org/) -->
<svg width="790" height="240" version="1.1" viewBox="0 0 790 240" xml:space="preserve" xmlns="http://www.w3.org/2000/svg" xmlns:cc="http://creativecommons.org/ns#" xmlns:dc="http://purl.org/dc/elements/1.1/" xmlns:rdf="http://www.w3.org/1999/02/22-rdf-syntax-ns#"><metadata><rdf:RDF><cc:Work rdf:about=""><dc:format>image/svg+xml</dc:format><dc:type rdf:resource="http://purl.org/dc/dcmitype/StillImage"/><dc:title/></cc:Work></rdf:RDF></metadata><g transform="translate(.003 -83.349)"><g transform="matrix(1.9805,0,0,-1.9805,-440.69,792.8)" fill="#221d63" font-size="47.796px" stroke-width=".67323">



















<g transform="matrix(1,0,0,-1,586.69,275.2)" aria-label="A"><path d="m7.0014-9.3352v9.3352h-7.0014v-23.338q0-9.3352 14.003-9.3352h4.6676q14.003 0 14.003 9.3352v23.338h-7.0014v-9.3352zm7.0014-16.337q-7.0014 0-7.0014 2.3338v7.0014h18.67v-7.0014q0-2.3338-7.0014-2.3338zm-25.171-7.0014v32.673h-7.0014v-32.673zm-36.839 0h18.67v7.0014h-18.67q-7.0014 0-7.0014 2.3338v14.003q0 2.3338 7.0014 2.3338h18.67v7.0014h-18.67q-14.003 0-14.003-9.3352v-14.003q0-9.3352 14.003-9.3352zm-85.531 7.0014v5.8345h11.669q7.0014 0 7.0014-2.3338v-1.1669q0-2.3338-7.0014-2.3338zm-7.0014-7.0014h18.67q14.003 0 14.003 9.3352v1.1669q0 3.6174-2.1004 5.8345 2.1004 2.2171 2.1004 5.8345v10.502h-7.0014v-10.502q0-2.3338-7.0014-2.3338h-11.669v12.836h-7.0014zm-36.849 23.338v9.3352h-7.0014v-23.338q0-9.3352 14.003-9.3352h4.6676q14.003 0 14.003 9.3352v23.338h-7.0014v-9.3352zm7.0014-16.337q-7.0014 0-7.0014 2.3338v7.0014h18.67v-7.0014q0-2.3338-7.0014-2.3338zm-60.17 0q-7.0014 0-7.0014 2.3338v23.338h-7.0014v-23.338q0-9.3352 14.003-9.3352 7.0014 0 10.502 2.3338 3.5007-2.3338 10.502-2.3338 14.003 0 14.003 9.3352v23.338h-7.0014v-23.338q0-2.3338-7.0014-2.3338t-7.0014 2.3338v23.338h-7.0014v-23.338q0-2.3338-7.0014-2.3338z" stroke-width=".67323"/></g>



</g><g fill="#55c5d0"><path d="m540.74 209.81h14.967v-15.606h-14.967zm0 11.4v15.372h23.314zm35.635 12.32 4.6573 3.0523v11.23l-6.9933-4.6567c-2.6475 3.0995-5.7628 4.6567-9.3445 4.6567h-23.595c-3.2234 0-5.9805-1.1368-8.2543-3.4266-2.2892-2.2738-3.4262-5.0302-3.4262-8.2543v-15.559c0-1.4327 0.54523-2.5079 1.6511-3.2393 0.6698-0.45194 1.1835-0.8724 1.5416-1.2307-1.3394-1.3394-2.1338-2.1962-2.3675-2.5542-0.54503-0.82527-0.82527-1.9005-0.82527-3.2393v-15.606c0-3.2858 1.1212-6.0579 3.3797-8.3008 2.2427-2.2584 5.015-3.3795 8.3008-3.3795h14.235c3.3173 0 6.09 1.1212 8.3329 3.3482 2.227 2.2427 3.3482 5.0148 3.3482 8.3321v15.014c0 3.1933-1.137 5.9339-3.4262 8.2548-1.8222 1.8222-4.0336 2.7879-6.6503 2.881l8.1144 5.28v-5.56h11.322z" stroke-width="1.3333"/><path d="m293.34 307.92c-33.411 5.7476-67.944-10.163-107.23-22.835-28.602-63.825 6.9624-151.55 50.389-200.86-88.137 9.1748-161.16 78.199-179.66 145.37 47.169-7.347 88.32 25.742 119.72 52.52-27.931-8.3598-58.311-14.176-92.37-9.0144-16.475 2.4976-33.811 7.5637-52.146 16.153-10.354 4.8506-21.029 10.826-32.046 18.096 141.14-77.069 203.85 57.678 293.33 0.57315z" fill-rule="evenodd" stroke-width="1.3333"/><g transform="matrix(1.9805,0,0,-1.9805,-440.69,792.8)" stroke-width=".67323">



<g transform="matrix(.96398 0 -.26596 -.96398 423.2 247.36)" aria-label="´"><path d="m4.9664-12.496c3.0771-0.87913-0.69483 3.286-2.0286 2.8685 0.3277-0.75959 1.4211-1.9685 2.0286-2.8685zm132.86 5.3183c-0.45351 2.3437-0.76678 4.5596 2.3547 3.6449-0.7849-1.215-1.5698-2.43-2.3547-3.6449zm-0.8286-0.97624c2.2379-0.18031 2.6065 3.1043 4.0328 4.4283 2.1293 2.0629 1.6013 4.4099-0.25855 1.1035-2.5712-0.93964-3.3528 0.64848-4.2114 1.7924-0.63235-1.4394 0.34131-4.3238 0.33105-6.3229 0.0353-0.33377 0.0707-0.66755 0.10602-1.0013zm-26.333 0.56416c1.2678 2.2296-6.194-1.9223-4.0048 3.1053-0.39469 4.8058 9.7296 1.199 3.5789 3.797-5.9046 0.46123-6.6772-10.824 0.42587-6.9023zm-23.52-0.56416c2.1318 0.10822 1.5311 3.805 2.4941 5.4482 1.189 3.7516-1.5536 0.61446-1.4128-1.5291zm-31.1 0c2.0018 0.23805 4.7238-0.46971 6.2899 0.34051-1.4003 0.53055-3.3717 0.62618-1.6184 3.5581 1.2262 1.9608 0.56908 5.4073-0.52047 1.7231-0.96145-1.53-0.16489-5.3688-2.7339-4.7877-0.82113 0.014187-1.4135 0.23662-1.4172-0.83397zm-29.182 0c2.4357 0.22397 1.2634 4.6564 3.1186 6.1469 4.5668 2.0627 2.0878-3.8829 1.4991-6.1241 2.0964 0.095836 1.7355 4.0478 2.42 5.8064-3.1737 4.7464-6.6467-1.8363-6.9036-5.3433l-0.09395-0.34051zm-29.372 0.97624c-0.4535 2.3437-0.76678 4.5596 2.3547 3.6449-0.7849-1.215-1.5698-2.43-2.3547-3.6449zm-0.82859-0.97624c2.2379-0.1803 2.6065 3.1043 4.0328 4.4283 2.1293 2.0629 1.6013 4.4099-0.25854 1.1035-2.5712-0.93964-3.3527 0.64849-4.2114 1.7924-0.63237-1.4394 0.34131-4.3238 0.33105-6.3229 0.035341-0.33377 0.070682-0.66755 0.10602-1.0013zm-31.973 0c2.3586-0.30861 3.0728 2.82 4.6592 4.1255 2.2481 3.4263 1.2367 0.4956 0.5798-1.7439-1.4518-3.6119 1.1043-2.1245 1.15 0.68305 0.39156 1.4969 2.1913 5.8607-0.60245 3.7095-1.4983-1.8591-2.9965-3.7181-4.4948-5.5772 0.30252 1.9333 1.7781 4.7599 1.3373 6.1272-1.6012-0.79214-1.3413-4.0285-2.2054-5.7887-0.14121-0.51183-0.28242-1.0237-0.42364-1.5355z" stroke-width=".67323"/></g>



</g></g></g></svg>
