<?xml version="1.0" encoding="UTF-8" standalone="no"?>
<!-- Created with Inkscape (http://www.inkscape.org/) -->

<svg
   width="3700"
   height="50"
   version="1.1"
   viewBox="0 0 978.96 13.229012"
   id="svg1"
   sodipodi:docname="menu-border.svg"
   inkscape:version="1.4 (e7c3feb100, 2024-10-09)"
   xmlns:inkscape="http://www.inkscape.org/namespaces/inkscape"
   xmlns:sodipodi="http://sodipodi.sourceforge.net/DTD/sodipodi-0.dtd"
   xmlns="http://www.w3.org/2000/svg"
   xmlns:svg="http://www.w3.org/2000/svg"
   xmlns:rdf="http://www.w3.org/1999/02/22-rdf-syntax-ns#"
   xmlns:cc="http://creativecommons.org/ns#"
   xmlns:dc="http://purl.org/dc/elements/1.1/">
  <defs
     id="defs1" />
  <sodipodi:namedview
     id="namedview1"
     pagecolor="#ffffff"
     bordercolor="#000000"
     borderopacity="0.25"
     inkscape:showpageshadow="2"
     inkscape:pageopacity="0.0"
     inkscape:pagecheckerboard="0"
     inkscape:deskcolor="#d1d1d1"
     inkscape:zoom="0.39864865"
     inkscape:cx="832.81356"
     inkscape:cy="84.033898"
     inkscape:window-width="1600"
     inkscape:window-height="863"
     inkscape:window-x="0"
     inkscape:window-y="0"
     inkscape:window-maximized="1"
     inkscape:current-layer="svg1" />
  <metadata
     id="metadata1">
    <rdf:RDF>
      <cc:Work
         rdf:about="">
        <dc:format>image/svg+xml</dc:format>
        <dc:type
           rdf:resource="http://purl.org/dc/dcmitype/StillImage" />
      </cc:Work>
    </rdf:RDF>
  </metadata>
  <g
     transform="matrix(1,0,0,0.62424518,0,-172.19496)"
     id="g1"
     style="stroke-width:1.26568">
    <path
       d="m -0.51972,296.28 c 33.599,-0.28538 47.494,-15.816 85.976,-16.571 38.482,-0.75482 69.779,16.164 117.09,16.571 47.311,0.407 92.139,-17.395 143.5,-17.373 51.358,0.0225 92.646,17.316 142.3,17.373 49.652,0.0563 83.419,-15.732 134.24,-16.036 50.824,-0.30426 101.98,16.807 151.55,16.036 49.569,-0.77046 83.998,-18.584 124.1,-17.64 40.105,0.94419 54.252,17.817 86.187,17.64 v -21.167 h -984.94 z"
       fill="#e9f2f1"
       id="path1"
       style="stroke-width:1.26568" />
  </g>
</svg>
